#tb 0: 1/25
0,          0,          0,        1,   304128, 0xe722f0be
0,          1,          1,        1,   304128, 0x2935975f
0,          2,          2,        1,   304128, 0xd3ce4c07
0,          3,          3,        1,   304128, 0x475b2869
0,          4,          4,        1,   304128, 0xf43ce386
